<?xml version="1.0" encoding="UTF-8"?>
<svg xmlns="http://www.w3.org/2000/svg" xmlns:xlink="http://www.w3.org/1999/xlink" width="64px" height="64px" viewBox="0 0 64 64" version="1.1">
<g id="surface1">
<path style="stroke:none;fill-rule:nonzero;fill: #0741ad;fill-opacity:1;" d="M 0.234375 32 L 0.234375 64 L 63.953125 64 L 63.953125 0 L 0.234375 0 Z M 21.003906 31.332031 C 21.003906 52.199219 20.957031 55.332031 20.648438 55.332031 C 20.34375 55.332031 20.296875 52.199219 20.296875 31.332031 C 20.296875 10.464844 20.34375 7.332031 20.648438 7.332031 C 20.957031 7.332031 21.003906 10.464844 21.003906 31.332031 Z M 42.476562 32.332031 C 42.476562 56.867188 42.476562 57.332031 42.007812 57.332031 C 41.535156 57.332031 41.535156 56.867188 41.535156 32.332031 C 41.535156 7.800781 41.535156 7.332031 42.007812 7.332031 C 42.476562 7.332031 42.476562 7.800781 42.476562 32.332031 Z M 14.632812 11.332031 C 16.09375 13.667969 16.753906 16.667969 16.753906 21 C 16.753906 28.734375 14.394531 33.332031 10.5 33.332031 L 9.203125 33.332031 L 9.203125 40.933594 C 9.203125 48.066406 9.226562 48.667969 9.722656 49.601562 C 10.007812 50.199219 10.429688 50.667969 10.667969 50.667969 C 10.902344 50.667969 11.089844 51.132812 11.089844 51.667969 C 11.089844 52.535156 10.523438 52.667969 7.316406 52.667969 C 4.269531 52.667969 3.539062 52.464844 3.539062 51.734375 C 3.539062 51.265625 3.847656 50.667969 4.199219 50.464844 C 5.332031 49.800781 5.425781 48.132812 5.425781 30.800781 C 5.425781 13.464844 5.308594 11.800781 4.175781 11.464844 C 3.800781 11.332031 3.539062 10.867188 3.539062 10.199219 C 3.539062 9.332031 4.199219 9.265625 8.566406 9.464844 C 13.378906 9.667969 13.617188 9.734375 14.632812 11.332031 Z M 34.621094 10.464844 C 36.058594 11.601562 36.152344 11.601562 36.367188 10.464844 C 36.507812 9.867188 36.765625 9.332031 36.933594 9.332031 C 37.214844 9.332031 37.285156 10.667969 37.285156 16.332031 C 37.285156 24.464844 37.003906 25.332031 36.082031 19.933594 C 35.421875 15.933594 33.980469 12.199219 32.898438 11.601562 C 30.417969 10.265625 28.789062 17.464844 30.511719 22.066406 C 30.796875 22.800781 32.117188 24.933594 33.441406 26.800781 C 36.082031 30.464844 36.910156 32.332031 37.546875 36.332031 C 38.585938 42.734375 37.5 50.199219 35.042969 53.398438 C 33.839844 55 31.339844 55.066406 29.546875 53.601562 C 28.34375 52.601562 28.222656 52.601562 27.964844 53.601562 C 27.800781 54.199219 27.492188 54.667969 27.28125 54.667969 C 26.925781 54.667969 26.902344 53.800781 26.949219 46.867188 C 27.019531 37.667969 27.328125 36.800781 28.199219 43 C 29.214844 50 31.054688 53.464844 33.132812 52.398438 C 34.195312 51.800781 35.164062 48.667969 35.164062 45.734375 C 35.164062 42.398438 34.359375 40.132812 32 36.933594 C 29.402344 33.398438 28.152344 30.667969 27.585938 27.066406 C 26.21875 18.601562 28.484375 9.398438 31.929688 9.332031 C 32.566406 9.332031 33.769531 9.867188 34.621094 10.464844 Z M 56.542969 27.332031 C 59.753906 48.667969 60.105469 50.601562 60.8125 51.398438 C 61.121094 51.734375 61.355469 52.265625 61.355469 52.667969 C 61.355469 53.535156 54.113281 53.601562 53.921875 52.667969 C 53.851562 52.332031 54.089844 51.867188 54.441406 51.601562 C 54.796875 51.398438 55.246094 51.132812 55.410156 50.933594 C 55.859375 50.535156 55.742188 47.265625 55.175781 44 L 54.632812 41 L 52.390625 40.800781 C 51.164062 40.734375 50.007812 40.867188 49.839844 41.199219 C 49.675781 41.535156 49.34375 43.398438 49.109375 45.332031 C 48.566406 49.667969 48.753906 51.332031 49.792969 51.332031 C 50.265625 51.332031 50.5 51.667969 50.5 52.332031 C 50.5 53.132812 50.078125 53.332031 48.140625 53.332031 C 45.804688 53.332031 45.167969 52.667969 46.324219 51.398438 C 47.152344 50.535156 47.410156 49 49.910156 31.601562 C 53.167969 8.933594 53.121094 9.265625 53.523438 9.464844 C 53.757812 9.601562 54.867188 16.199219 56.542969 27.332031 Z M 56.542969 27.332031 "/>
<path style="stroke:none;fill-rule:nonzero;fill: #0741ad;fill-opacity:1;" d="M 9.628906 12.066406 C 9.25 12.667969 9.203125 13.867188 9.203125 21.667969 L 9.203125 30.667969 L 9.910156 30.667969 C 11.089844 30.667969 12.152344 29.066406 12.484375 26.734375 C 12.671875 25.464844 12.765625 22.933594 12.695312 20 C 12.625 16.066406 12.507812 15.066406 12.035156 13.734375 C 11.351562 11.867188 10.195312 11.066406 9.628906 12.066406 Z M 9.628906 12.066406 "/>
<path style="stroke:none;fill-rule:nonzero;fill: #0741ad;fill-opacity:1;" d="M 51.066406 30.933594 L 50.101562 37.867188 L 51.5625 38.132812 C 52.390625 38.265625 53.308594 38.199219 53.640625 38 L 54.230469 37.667969 L 53.261719 30.800781 C 52.71875 27.066406 52.222656 24 52.152344 24 C 52.082031 24 51.585938 27.132812 51.066406 30.933594 Z M 51.066406 30.933594 "/>
</g>
</svg>
